<svg width="58" height="58" viewBox="0 0 58 58" fill="none" xmlns="http://www.w3.org/2000/svg">
<path fill-rule="evenodd" clip-rule="evenodd" d="M36.6192 56.9887C48.9393 53.6428 58 42.3795 58 29C58 12.9837 45.0163 0 29 0C12.9837 0 0 12.9837 0 29C0 42.3859 9.0693 53.6536 21.3984 56.9935C21.6607 56.7567 21.8345 56.4534 22 56C22 56 21.948 53.2895 21.9468 50.5074C21.4023 50.5833 20.9047 50.6691 20.4363 50.7498L20.4361 50.7498L20.4357 50.7499L20.4355 50.75L20.4353 50.75C18.5402 51.0767 17.1224 51.3211 15 50.5C13.3048 49.852 12.6152 48.728 12 47C11.2722 45.4207 10.8272 44.6826 10 43.5C9.74597 43.3645 9.49471 43.2655 9.25286 43.1701C8.52128 42.8818 7.87578 42.6273 7.5 41.5C7.5 40.6772 8.11774 40.7795 8.94238 40.9159C9.12002 40.9453 9.30726 40.9763 9.5 41C10.3874 41.2594 10.8231 41.4804 11.5 42C12.919 42.7818 13.4677 43.7252 14.3858 45.3038L14.5 45.5C16.0985 46.9838 16.9694 47.1915 18.5 47C20.4294 47.1041 21.0642 46.7695 22 46V46.208C22.0341 45.0846 22.457 43.564 23.5 42.5H23.5212C22.0424 42.4575 20.7045 42.3316 19.5 42C13 39.5 10.7636 36.0615 10.5 30C10.3213 25.8905 11.5329 22.7377 13.5798 20.3826C13.5019 20.3619 13.4346 20.3039 13.4067 20.22L13.0128 19.0385C13.0043 19.013 13 18.9863 13 18.9594V17.5V16V14.0406C13 14.0137 13.0043 13.987 13.0128 13.9615L13.443 12.6709C13.477 12.5689 13.5726 12.5 13.6802 12.5H14.9594C14.9863 12.5 15.013 12.5043 15.0385 12.5128L16.5 13L19 14L20.9637 14.9819C20.9877 14.9939 21.0097 15.0097 21.0287 15.0287L21.5787 15.5787C24.1302 14.8262 26.8682 14.4919 29.5 14.4919C31.7593 14.4919 34.0355 14.769 36.1737 15.3535C36.1859 15.3239 36.204 15.296 36.2285 15.2715L36.9713 14.5287C36.9903 14.5097 37.0123 14.4939 37.0363 14.4819L39 13.5L41.5 12.5L42.9615 12.0128C42.987 12.0043 43.0137 12 43.0406 12H44.3198C44.4274 12 44.523 12.0689 44.557 12.1709L44.9872 13.4615C44.9957 13.487 45 13.5137 45 13.5406V15.5V17V18.9594C45 18.9863 44.9957 19.013 44.9872 19.0385L44.5977 20.207C44.5786 20.2643 44.5413 20.3094 44.4948 20.3388C46.5109 22.7337 47.6854 25.9204 47.5 30C47.358 33.1231 46.2242 37.814 41.5 40.5C39.6249 41.5661 37.184 42.2593 34.0151 42.5H34.5C35.6756 43.792 36.0001 46 36 46.5C36 46.5727 36.0028 46.7741 36.0069 47.0772C36.0279 48.6108 36.0845 52.7485 36 56C36.0533 56.418 36.3224 56.7467 36.6192 56.9887ZM30.0514 57.9813C29.7026 57.99 29.3513 57.9964 29 58C29.352 58 29.7025 57.9937 30.0514 57.9813ZM22 46.4986V46.5012C22 46.5008 22 46.5004 22 46.5C22 46.4995 22 46.4991 22 46.4986Z" fill="#5C5C5C"/>
</svg>
