<svg width="52" height="52" viewBox="0 0 52 52" fill="none" xmlns="http://www.w3.org/2000/svg">
<rect x="1" y="1" width="50" height="50" rx="5" stroke="#5C5C5C" stroke-width="2"/>
<path d="M14.75 44H7.95312V18.6406H14.75V44ZM7.55469 12.0781C7.55469 11.0625 7.89062 10.2266 8.5625 9.57031C9.25 8.91406 10.1797 8.58594 11.3516 8.58594C12.5078 8.58594 13.4297 8.91406 14.1172 9.57031C14.8047 10.2266 15.1484 11.0625 15.1484 12.0781C15.1484 13.1094 14.7969 13.9531 14.0938 14.6094C13.4062 15.2656 12.4922 15.5938 11.3516 15.5938C10.2109 15.5938 9.28906 15.2656 8.58594 14.6094C7.89844 13.9531 7.55469 13.1094 7.55469 12.0781ZM26.5859 18.6406L26.7969 21.5703C28.6094 19.3047 31.0391 18.1719 34.0859 18.1719C36.7734 18.1719 38.7734 18.9609 40.0859 20.5391C41.3984 22.1172 42.0703 24.4766 42.1016 27.6172V44H35.3281V27.7812C35.3281 26.3438 35.0156 25.3047 34.3906 24.6641C33.7656 24.0078 32.7266 23.6797 31.2734 23.6797C29.3672 23.6797 27.9375 24.4922 26.9844 26.1172V44H20.2109V18.6406H26.5859Z" fill="#5C5C5C"/>
</svg>
