<svg width="45" height="52" viewBox="0 0 45 52" fill="none" xmlns="http://www.w3.org/2000/svg">
<line x1="21.75" y1="17.6029" x2="38.25" y2="17.6029" stroke="#5C5C5C" stroke-width="1.5" stroke-linecap="round"/>
<line x1="21.75" y1="23.7206" x2="38.25" y2="23.7206" stroke="#5C5C5C" stroke-width="1.5" stroke-linecap="round"/>
<line x1="6.75" y1="29.8382" x2="38.25" y2="29.8382" stroke="#5C5C5C" stroke-width="1.5" stroke-linecap="round"/>
<line x1="6.75" y1="35.9559" x2="38.25" y2="35.9559" stroke="#5C5C5C" stroke-width="1.5" stroke-linecap="round"/>
<line x1="6.75" y1="42.0735" x2="38.25" y2="42.0735" stroke="#5C5C5C" stroke-width="1.5" stroke-linecap="round"/>
<mask id="path-6-inside-1" fill="white">
<path d="M17.8333 26C18.1095 26 18.3349 25.7759 18.3187 25.5002C18.2122 23.6808 17.5265 21.9598 16.3807 20.6625C15.1305 19.2469 13.4348 18.4516 11.6667 18.4516C9.89856 18.4516 8.20286 19.2469 6.95262 20.6625C5.80683 21.9598 5.12118 23.6808 5.01462 25.5002C4.99847 25.7759 5.22386 26 5.5 26L11.6667 26H17.8333Z"/>
</mask>
<path d="M17.8333 26C18.1095 26 18.3349 25.7759 18.3187 25.5002C18.2122 23.6808 17.5265 21.9598 16.3807 20.6625C15.1305 19.2469 13.4348 18.4516 11.6667 18.4516C9.89856 18.4516 8.20286 19.2469 6.95262 20.6625C5.80683 21.9598 5.12118 23.6808 5.01462 25.5002C4.99847 25.7759 5.22386 26 5.5 26L11.6667 26H17.8333Z" stroke="#5C5C5C" stroke-width="2" mask="url(#path-6-inside-1)"/>
<path d="M14.5 15.0968C14.5 16.6765 13.2285 17.9516 11.6667 17.9516C10.1049 17.9516 8.83334 16.6765 8.83334 15.0968C8.83334 13.5171 10.1049 12.2419 11.6667 12.2419C13.2285 12.2419 14.5 13.5171 14.5 15.0968Z" stroke="#5C5C5C"/>
<path fill-rule="evenodd" clip-rule="evenodd" d="M33 2H4C2.89543 2 2 2.89543 2 4V48C2 49.1046 2.89543 50 4 50H41C42.1046 50 43 49.1046 43 48V12.2353H45V3.9921C45 3.99473 45 3.99737 45 4V48C45 50.2091 43.2091 52 41 52H4C1.79086 52 0 50.2091 0 48V4C0 1.79086 1.79086 0 4 0H33V2Z" fill="#5C5C5C"/>
<path d="M34 11.2353V2.44775L42.6185 11.2353H34Z" stroke="#5C5C5C" stroke-width="2"/>
</svg>
