<svg width="36" height="74" viewBox="0 0 36 74" fill="none" xmlns="http://www.w3.org/2000/svg">
<circle cx="17.5" cy="12.5" r="11.5" stroke="#5C5C5C" stroke-width="2"/>
<mask id="path-2-inside-1" fill="white">
<path d="M34 48.5C35.1046 48.5 36.0058 47.6039 35.9446 46.501C35.7967 43.8369 35.3539 41.2181 34.6298 38.7416C33.7252 35.6478 32.3994 32.8367 30.7279 30.4688C29.0565 28.1009 27.0722 26.2226 24.8883 24.9411C22.7044 23.6596 20.3638 23 18 23C15.6362 23 13.2956 23.6596 11.1117 24.9411C8.92784 26.2226 6.94353 28.1009 5.27208 30.4688C3.60062 32.8367 2.27475 35.6478 1.37017 38.7416C0.646069 41.2181 0.203265 43.8369 0.0553926 46.501C-0.00582411 47.6039 0.895431 48.5 2 48.5L18 48.5H34Z"/>
</mask>
<path d="M34 48.5C35.1046 48.5 36.0058 47.6039 35.9446 46.501C35.7967 43.8369 35.3539 41.2181 34.6298 38.7416C33.7252 35.6478 32.3994 32.8367 30.7279 30.4688C29.0565 28.1009 27.0722 26.2226 24.8883 24.9411C22.7044 23.6596 20.3638 23 18 23C15.6362 23 13.2956 23.6596 11.1117 24.9411C8.92784 26.2226 6.94353 28.1009 5.27208 30.4688C3.60062 32.8367 2.27475 35.6478 1.37017 38.7416C0.646069 41.2181 0.203265 43.8369 0.0553926 46.501C-0.00582411 47.6039 0.895431 48.5 2 48.5L18 48.5H34Z" stroke="#5C5C5C" stroke-width="4" mask="url(#path-2-inside-1)"/>
</svg>
